<?xml version="1.0" encoding="UTF-8" standalone="no"?>
<!-- Created with Inkscape (http://www.inkscape.org/) -->

<svg
   version="1.1"
   id="svg824"
   xml:space="preserve"
   width="83.946999mm"
   height="49.656998mm"
   viewBox="0 0 317.28 187.67999"
   sodipodi:docname="Insight Decals.svg"
   inkscape:version="1.1.2 (b8e25be833, 2022-02-05)"
   inkscape:export-filename="C:\Users\Boing\Pictures\Insight Decals.bitmap"
   inkscape:export-xdpi="96"
   inkscape:export-ydpi="96"
   xmlns:inkscape="http://www.inkscape.org/namespaces/inkscape"
   xmlns:sodipodi="http://sodipodi.sourceforge.net/DTD/sodipodi-0.dtd"
   xmlns="http://www.w3.org/2000/svg"
   xmlns:svg="http://www.w3.org/2000/svg"><defs
     id="defs828"><marker
       style="overflow:visible"
       id="TriangleInM"
       refX="0.0"
       refY="0.0"
       orient="auto"
       inkscape:stockid="TriangleInM"
       inkscape:isstock="true"><path
         transform="scale(-0.4)"
         style="fill-rule:evenodd;fill:context-stroke;stroke:context-stroke;stroke-width:1.0pt"
         d="M 5.77,0.0 L -2.88,5.0 L -2.88,-5.0 L 5.77,0.0 z "
         id="path38329" /></marker><marker
       style="overflow:visible"
       id="Arrow1Mstart"
       refX="0.0"
       refY="0.0"
       orient="auto"
       inkscape:stockid="Arrow1Mstart"
       inkscape:isstock="true"><path
         transform="scale(0.4) translate(10,0)"
         style="fill-rule:evenodd;fill:context-stroke;stroke:context-stroke;stroke-width:1.0pt"
         d="M 0.0,0.0 L 5.0,-5.0 L -12.5,0.0 L 5.0,5.0 L 0.0,0.0 z "
         id="path38199" /></marker><marker
       style="overflow:visible"
       id="Arrow1Lstart"
       refX="0.0"
       refY="0.0"
       orient="auto"
       inkscape:stockid="Arrow1Lstart"
       inkscape:isstock="true"><path
         transform="scale(0.8) translate(12.5,0)"
         style="fill-rule:evenodd;fill:context-stroke;stroke:context-stroke;stroke-width:1.0pt"
         d="M 0.0,0.0 L 5.0,-5.0 L -12.5,0.0 L 5.0,5.0 L 0.0,0.0 z "
         id="path38193" /></marker><rect
       x="138.86139"
       y="38.123762"
       width="42.920792"
       height="26.257425"
       id="rect49481" /><rect
       x="252.72772"
       y="114.37129"
       width="28.277228"
       height="13.886139"
       id="rect43169" /><rect
       x="220.41089"
       y="146.18317"
       width="41.910891"
       height="16.663366"
       id="rect40341" /><marker
       style="overflow:visible"
       id="marker38511"
       refX="0.0"
       refY="0.0"
       orient="auto"
       inkscape:stockid="TriangleOutS"
       inkscape:isstock="true"><path
         transform="scale(0.2)"
         style="fill-rule:evenodd;fill:context-stroke;stroke:context-stroke;stroke-width:1.0pt"
         d="M 5.77,0.0 L -2.88,5.0 L -2.88,-5.0 L 5.77,0.0 z "
         id="path38509" /></marker><marker
       style="overflow:visible;"
       id="Arrow1Send"
       refX="0.0"
       refY="0.0"
       orient="auto"
       inkscape:stockid="Arrow1Send"
       inkscape:isstock="true"><path
         transform="scale(0.2) rotate(180) translate(6,0)"
         style="fill-rule:evenodd;fill:context-stroke;stroke:context-stroke;stroke-width:1.0pt;"
         d="M 0.0,0.0 L 5.0,-5.0 L -12.5,0.0 L 5.0,5.0 L 0.0,0.0 z "
         id="path38208" /></marker><marker
       style="overflow:visible"
       id="TriangleOutM"
       refX="0.0"
       refY="0.0"
       orient="auto"
       inkscape:stockid="TriangleOutM"
       inkscape:isstock="true"><path
         transform="scale(0.4)"
         style="fill-rule:evenodd;fill:context-stroke;stroke:context-stroke;stroke-width:1.0pt"
         d="M 5.77,0.0 L -2.88,5.0 L -2.88,-5.0 L 5.77,0.0 z "
         id="path38338" /></marker><marker
       style="overflow:visible;"
       id="Arrow2Lend"
       refX="0.0"
       refY="0.0"
       orient="auto"
       inkscape:stockid="Arrow2Lend"
       inkscape:isstock="true"><path
         transform="scale(1.1) rotate(180) translate(1,0)"
         d="M 8.7185878,4.0337352 L -2.2072895,0.016013256 L 8.7185884,-4.0017078 C 6.9730900,-1.6296469 6.9831476,1.6157441 8.7185878,4.0337352 z "
         style="stroke:context-stroke;fill-rule:evenodd;fill:context-stroke;stroke-width:0.62500000;stroke-linejoin:round;"
         id="path38214" /></marker><marker
       style="overflow:visible;"
       id="Arrow1Mend"
       refX="0.0"
       refY="0.0"
       orient="auto"
       inkscape:stockid="Arrow1Mend"
       inkscape:isstock="true"><path
         transform="scale(0.4) rotate(180) translate(10,0)"
         style="fill-rule:evenodd;fill:context-stroke;stroke:context-stroke;stroke-width:1.0pt;"
         d="M 0.0,0.0 L 5.0,-5.0 L -12.5,0.0 L 5.0,5.0 L 0.0,0.0 z "
         id="path38202" /></marker><marker
       id="ExperimentalArrow"
       refX="5.0"
       refY="3.0"
       orient="auto-start-reverse"
       inkscape:stockid="ExperimentalArrow"
       inkscape:isstock="true"><path
         style="fill:context-stroke"
         d="m 10,3 -10,3 0,-6 z"
         id="path38446" /></marker><marker
       style="overflow:visible;"
       id="Arrow2Send"
       refX="0.0"
       refY="0.0"
       orient="auto"
       inkscape:stockid="Arrow2Send"
       inkscape:isstock="true"><path
         transform="scale(0.3) rotate(180) translate(-2.3,0)"
         d="M 8.7185878,4.0337352 L -2.2072895,0.016013256 L 8.7185884,-4.0017078 C 6.9730900,-1.6296469 6.9831476,1.6157441 8.7185878,4.0337352 z "
         style="stroke:context-stroke;fill-rule:evenodd;fill:context-stroke;stroke-width:0.62500000;stroke-linejoin:round;"
         id="path38226" /></marker><marker
       style="overflow:visible"
       id="TriangleOutS"
       refX="0.0"
       refY="0.0"
       orient="auto"
       inkscape:stockid="TriangleOutS"
       inkscape:isstock="true"><path
         transform="scale(0.2)"
         style="fill-rule:evenodd;fill:context-stroke;stroke:context-stroke;stroke-width:1.0pt"
         d="M 5.77,0.0 L -2.88,5.0 L -2.88,-5.0 L 5.77,0.0 z "
         id="path38341" /></marker><rect
       x="117.90594"
       y="111.34158"
       width="7.8267325"
       height="18.430693"
       id="rect34595" /><rect
       x="117.40099"
       y="112.35149"
       width="9.5940583"
       height="16.158415"
       id="rect28919" /><rect
       x="70.188119"
       y="114.87624"
       width="48.786533"
       height="15.211092"
       id="rect21917" /><rect
       x="115.44"
       y="154.08"
       width="46.639998"
       height="23.679998"
       id="rect15833" /><rect
       x="62.719999"
       y="154.08"
       width="45.591882"
       height="17.350695"
       id="rect11152" /><clipPath
       clipPathUnits="userSpaceOnUse"
       id="clipPath848"><path
         d="m 165,165 h 12870 v 9870 H 165 Z"
         clip-rule="evenodd"
         id="path846" /></clipPath><clipPath
       clipPathUnits="userSpaceOnUse"
       id="clipPath858"><path
         d="m 165,165 h 12870 v 9870 H 165 Z"
         clip-rule="evenodd"
         id="path856" /></clipPath><clipPath
       clipPathUnits="userSpaceOnUse"
       id="clipPath864"><path
         d="M 4616,3926 H 8583 V 6273 H 4616 Z"
         clip-rule="evenodd"
         id="path862" /></clipPath><rect
       x="117.90594"
       y="111.34158"
       width="15.653465"
       height="20.70297"
       id="rect37073" /><rect
       x="252.72772"
       y="114.37129"
       width="28.277228"
       height="13.886139"
       id="rect45133" /></defs><sodipodi:namedview
     id="namedview826"
     pagecolor="#505050"
     bordercolor="#eeeeee"
     borderopacity="1"
     inkscape:pageshadow="0"
     inkscape:pageopacity="0"
     inkscape:pagecheckerboard="0"
     showgrid="false"
     fit-margin-top="0"
     fit-margin-left="0"
     fit-margin-right="0"
     fit-margin-bottom="0"
     units="mm"
     inkscape:document-units="mm"
     inkscape:snap-global="false"
     inkscape:zoom="3.9607843"
     inkscape:cx="156.66089"
     inkscape:cy="115.12871"
     inkscape:window-width="1920"
     inkscape:window-height="1017"
     inkscape:window-x="-8"
     inkscape:window-y="-8"
     inkscape:window-maximized="1"
     inkscape:current-layer="g830" /><g
     id="g830"
     inkscape:groupmode="layer"
     inkscape:label="Insight"
     transform="matrix(1.3333333,0,0,-1.3333333,-369.27999,501.91999)"><path
       style="font-size:13.2283px;line-height:1.25;font-family:Nasalization;-inkscape-font-specification:Nasalization;white-space:pre;stroke-width:0.75"
       d="m 329.67493,259.25576 c -1.94456,0 -3.02597,-1.10126 -3.02597,-3.35337 0,-2.2422 1.07149,-3.34346 3.02597,-3.34346 h 2.58944 v 1.17071 h -2.58944 c -1.29968,0 -1.85527,0.64488 -1.85527,2.17275 0,1.53779 0.56551,2.18266 1.85527,2.18266 h 2.58944 v 1.17071 z"
       id="path52711" /><path
       style="font-size:13.2283px;line-height:1.25;font-family:Nasalization;-inkscape-font-specification:Nasalization;white-space:pre;stroke-width:0.75"
       d="m 336.45112,257.94616 c 0.0695,0.15874 0.17858,0.22819 0.33732,0.22819 0.15874,0 0.26788,-0.0695 0.3274,-0.22819 l 2.03385,-5.38723 h 1.29968 l -2.26203,5.95274 c -0.23811,0.62503 -0.69449,0.86314 -1.38898,0.86314 -0.7044,0 -1.16078,-0.23811 -1.40881,-0.86314 l -2.35133,-5.95274 h 1.28976 z"
       id="path52713" /><path
       style="font-size:13.2283px;line-height:1.25;font-family:Nasalization;-inkscape-font-specification:Nasalization;white-space:pre;stroke-width:0.75"
       d="m 342.60229,257.85687 c 0,0.23811 0.13889,0.38693 0.40677,0.38693 0.20834,0 0.3274,-0.0893 0.41669,-0.28772 l 1.95448,-4.27605 c 0.27779,-0.76393 0.70441,-1.24015 1.637,-1.24015 1.03181,0 1.53779,0.58535 1.53779,1.46834 v 5.34754 h -1.18063 v -5.29793 c 0,-0.22819 -0.14881,-0.37701 -0.39684,-0.37701 -0.21827,0 -0.34725,0.11906 -0.42662,0.2778 l -1.95448,4.27605 c -0.27779,0.76393 -0.69448,1.24014 -1.62708,1.24014 -1.04173,0 -1.53779,-0.58535 -1.53779,-1.45842 v -5.35746 h 1.17071 z"
       id="path52715" /><path
       style="font-size:13.2283px;line-height:1.25;font-family:Nasalization;-inkscape-font-specification:Nasalization;white-space:pre;stroke-width:0.75"
       d="m 369.29113,257.98585 c 0,0.0794 0.0496,0.11905 0.12897,0.11905 h 2.26204 c 0.71432,0 1.02188,-0.34724 1.02188,-0.87307 0,-0.54567 -0.33732,-0.80361 -1.0318,-0.80361 h -2.38109 z"
       id="path53120" /><path
       style="font-size:13.2283px;line-height:1.25;font-family:Nasalization;-inkscape-font-specification:Nasalization;white-space:pre;stroke-width:0.75"
       d="m 369.29113,255.45594 h 2.41085 c 0.68457,0 1.03181,-0.29764 1.03181,-0.86315 0,-0.54567 -0.3274,-0.87307 -1.03181,-0.87307 h -2.28188 c -0.0794,0 -0.12897,0.0298 -0.12897,0.10913 z"
       id="path53118" /><path
       style="font-size:13.2283px;line-height:1.25;font-family:Nasalization;-inkscape-font-specification:Nasalization;white-space:pre;stroke-width:0.75"
       d="m 368.69585,259.25576 c -0.37701,0 -0.55559,-0.17858 -0.55559,-0.54566 v -5.60549 c 0,-0.36709 0.17858,-0.54567 0.55559,-0.54567 h 2.97637 c 1.57747,0 2.24219,0.77385 2.24219,1.84535 0,0.77385 -0.35716,1.26991 -0.99212,1.52786 0.62504,0.24803 0.96236,0.71433 0.96236,1.48819 0,1.09133 -0.66472,1.83542 -2.2422,1.83542 z"
       id="path52704" /><path
       style="font-size:13.2283px;line-height:1.25;font-family:Nasalization;-inkscape-font-specification:Nasalization;white-space:pre;stroke-width:0.75"
       d="m 377.83329,257.94616 c 0.0695,0.15874 0.17858,0.22819 0.33732,0.22819 0.15874,0 0.26788,-0.0695 0.3274,-0.22819 l 2.03385,-5.38722 h 1.29969 l -2.26205,5.95273 c -0.23811,0.62504 -0.69448,0.86315 -1.38897,0.86315 -0.70441,0 -1.16078,-0.23811 -1.40881,-0.86315 l -2.35133,-5.95273 h 1.28976 z"
       id="path52706" /><path
       style="font-size:13.2283px;line-height:1.25;font-family:Nasalization;-inkscape-font-specification:Nasalization;white-space:pre;stroke-width:0.75"
       d="m 381.61328,259.25576 v -1.1707 h 1.95448 v -5.52612 h 1.18063 v 5.52612 h 1.95447 v 1.1707 z"
       id="path52708" /><path
       style="font-size:11.3386px;line-height:1.25;font-family:Nasalization;-inkscape-font-specification:Nasalization;white-space:pre;stroke-width:0.75"
       d="m 324.78961,289.48524 v -1.00346 h 3.14646 c 0.55276,0 0.79937,-0.34866 0.79937,-0.75685 0,-0.40819 -0.2296,-0.79937 -0.79937,-0.79937 h -2.23654 c -0.62929,0 -0.90141,-0.26362 -0.90141,-0.90992 v -2.27056 h 1.00346 v 2.07497 c 0,0.10204 0.051,0.14456 0.14457,0.14456 h 1.49669 l 1.30961,-2.21953 h 1.11402 l -1.33512,2.29607 c 0.87591,0.24661 1.21606,1.01196 1.21606,1.7263 0,0.91843 -0.55275,1.71779 -1.84535,1.71779 z"
       id="path52695" /><path
       style="font-size:11.3386px;line-height:1.25;font-family:Nasalization;-inkscape-font-specification:Nasalization;white-space:pre;stroke-width:0.75"
       d="m 330.58081,289.48524 2.33008,-2.74677 -2.56819,-2.99339 h 1.24157 l 1.95591,2.27906 1.90489,-2.27906 h 1.22457 l -2.47465,2.91686 2.45764,2.8233 h -1.24158 l -1.84536,-2.11748 -1.76031,2.11748 z"
       id="path52697" /><path
       style="font-size:11.3386px;line-height:1.25;font-family:Nasalization;-inkscape-font-specification:Nasalization;white-space:pre;stroke-width:0.75"
       d="m 341.61044,289.48524 v -1.00346 h 1.67527 v -4.7367 h 1.01197 v 4.7367 h 1.67528 v 1.00346 z"
       id="path52699" /><path
       style="font-size:11.3386px;line-height:1.25;font-family:Nasalization;-inkscape-font-specification:Nasalization;white-space:pre;stroke-width:0.75"
       d="m 346.61926,289.48524 2.33008,-2.74677 -2.56819,-2.99339 h 1.24157 l 1.95591,2.27906 1.90489,-2.27906 h 1.22457 l -2.47465,2.91686 2.45764,2.8233 h -1.24158 l -1.84536,-2.11748 -1.76031,2.11748 z"
       id="path52701" /><path
       style="font-size:15.1181px;line-height:1.25;font-family:Nasalization;-inkscape-font-specification:Nasalization;white-space:pre;stroke-width:0.75"
       d="m 365.33912,274.50411 v -1.15654 h 4.04787 v 1.15654 z"
       id="path52692" /><path
       style="font-size:15.1181px;line-height:1.25;font-family:Nasalization;-inkscape-font-specification:Nasalization;white-space:pre;stroke-width:0.75"
       d="m 368.7482,287.56945 v -1.15653 h 4.04788 v 1.15653 z"
       id="path52689" /><path
       style="font-size:15.1181px;line-height:1.25;font-family:Nasalization;-inkscape-font-specification:Nasalization;white-space:pre;stroke-width:0.75"
       d="m 385.32651,290.46872 v -2.65322 h -2.63055 v -0.82773 h 2.63055 v -2.61921 h 0.83905 v 2.61921 h 2.63055 v 0.82773 h -2.63055 v 2.65322 z"
       id="path52686" /><path
       style="fill:none;stroke:#000000;stroke-width:1.60157;stroke-linecap:butt;stroke-linejoin:miter;stroke-miterlimit:4;stroke-dasharray:none;stroke-opacity:1;marker-end:url(#marker38511)"
       d="m 425.13141,282.23517 c 0,-17.98887 0,-17.98887 0,-17.98887"
       id="path38191" /><path
       style="fill:none;stroke:#000000;stroke-width:1.60157;stroke-linecap:butt;stroke-linejoin:miter;stroke-miterlimit:4;stroke-dasharray:none;stroke-opacity:1;marker-end:url(#marker38511)"
       d="m 404.01817,282.23517 c 0,-17.98887 0,-17.98887 0,-17.98887"
       id="path38599" /><path
       style="font-size:13.2283px;line-height:1.25;font-family:Nasalization;-inkscape-font-specification:Nasalization;white-space:pre;stroke-width:0.75"
       d="m 443.02419,267.07169 2.2422,-5.95274 c 0.24803,-0.6548 0.75401,-0.86314 1.40881,-0.86314 0.69449,0 1.15086,0.23811 1.3989,0.86314 l 2.36124,5.95274 h -1.29967 l -2.13307,-5.38723 c -0.0694,-0.15874 -0.16866,-0.22819 -0.3274,-0.22819 -0.15873,0 -0.26787,0.0694 -0.3274,0.22819 l -2.03385,5.38723 z"
       id="path52677" /><path
       style="font-size:13.2283px;line-height:1.25;font-family:Nasalization;-inkscape-font-specification:Nasalization;white-space:pre;stroke-width:0.75"
       d="m 451.40763,267.07169 v -1.17071 h 3.67085 c 0.64488,0 0.9326,-0.40677 0.9326,-0.88299 0,-0.47622 -0.26787,-0.93259 -0.9326,-0.93259 h -2.60928 c -0.73417,0 -1.05165,-0.30756 -1.05165,-1.06157 v -2.64897 h 1.17071 v 2.42078 c 0,0.11905 0.0596,0.16866 0.16866,0.16866 h 1.74613 l 1.52787,-2.58944 h 1.29968 l -1.55763,2.67873 c 1.02189,0.28772 1.41873,1.18062 1.41873,2.01401 0,1.07149 -0.64488,2.00409 -2.1529,2.00409 z"
       id="path52679" /><path
       style="font-size:13.2283px;line-height:1.25;font-family:Nasalization;-inkscape-font-specification:Nasalization;white-space:pre;stroke-width:0.75"
       d="m 460.5054,267.07169 c -1.57748,0 -2.24219,-0.75401 -2.24219,-1.82551 0,-0.73417 0.31747,-1.25007 0.94251,-1.50802 -0.61512,-0.25796 -0.96236,-0.77386 -0.96236,-1.5378 0,-1.04172 0.64488,-1.8255 2.23228,-1.8255 h 3.39306 v 1.17071 h -3.39306 c -0.68456,0 -1.01197,0.31747 -1.01197,0.8433 0,0.54567 0.34724,0.81354 1.02189,0.81354 h 3.32361 v 1.06157 h -3.29385 c -0.67464,0 -1.02188,0.24803 -1.02188,0.7937 0,0.51591 0.30756,0.8433 1.01196,0.8433 h 3.35338 v 1.17071 z"
       id="path52681" /><path
       style="font-size:13.2283px;line-height:1.25;font-family:Nasalization;-inkscape-font-specification:Nasalization;white-space:pre;stroke-width:0.75"
       d="m 468.1646,267.07169 c -1.94457,0 -3.02598,-1.10126 -3.02598,-3.35338 0,-2.24219 1.0715,-3.34345 3.02598,-3.34345 h 1.0318 c 1.49811,0 2.08346,0.92268 2.08346,2.09338 0,1.16078 -0.58535,1.89495 -1.7759,1.89495 h -1.60723 v -1.02188 h 1.48818 c 0.54567,0 0.82346,-0.31748 0.82346,-0.85323 0,-0.54566 -0.27779,-0.94251 -0.9326,-0.94251 h -1.11117 c -1.29969,0 -1.85527,0.64488 -1.85527,2.17274 0,1.53779 0.56551,2.18267 1.85527,2.18267 h 2.7581 v 1.17071 z"
       id="path52683" /><path
       style="font-size:7.55906px;line-height:1.25;font-family:Nasalization;-inkscape-font-specification:Nasalization;white-space:pre;stroke-width:0.75"
       d="m 467.12095,290.19344 v -2.50583 c 0,-0.76536 0.39685,-1.32095 1.41165,-1.32095 h 1.52504 v 0.66898 h -1.48536 c -0.60094,0 -0.78236,0.28913 -0.78236,0.65764 v 2.50016 z"
       id="path52668" /><path
       style="font-size:7.55906px;line-height:1.25;font-family:Nasalization;-inkscape-font-specification:Nasalization;white-space:pre;stroke-width:0.75"
       d="m 471.82646,290.19344 c -0.90142,0 -1.28126,-0.43087 -1.28126,-1.04315 0,-0.41953 0.18142,-0.71433 0.53859,-0.86174 -0.35151,-0.1474 -0.54993,-0.4422 -0.54993,-0.87874 0,-0.59527 0.36851,-1.04315 1.2756,-1.04315 h 1.93889 v 0.66898 h -1.93889 c -0.39119,0 -0.57828,0.18142 -0.57828,0.48189 0,0.31181 0.19843,0.46489 0.58395,0.46489 h 1.89921 v 0.60661 h -1.88221 c -0.38551,0 -0.58394,0.14173 -0.58394,0.45354 0,0.2948 0.17575,0.48189 0.57827,0.48189 h 1.91623 v 0.66898 z"
       id="path52670" /><path
       style="font-size:7.55906px;line-height:1.25;font-family:Nasalization;-inkscape-font-specification:Nasalization;white-space:pre;stroke-width:0.75"
       d="m 475.28474,289.45643 c 0,0.051 0.0226,0.068 0.0737,0.068 h 0.9241 c 0.74268,0 1.05449,-0.3685 1.05449,-1.24157 0,-0.87874 -0.31181,-1.24725 -1.05449,-1.24725 h -0.9241 c -0.051,0 -0.0737,0.017 -0.0737,0.068 z"
       id="path53158" /><path
       style="font-size:7.55906px;line-height:1.25;font-family:Nasalization;-inkscape-font-specification:Nasalization;white-space:pre;stroke-width:0.75"
       d="m 474.93324,290.19344 c -0.21543,0 -0.31748,-0.10205 -0.31748,-0.31181 v -3.20316 c 0,-0.20976 0.10205,-0.31181 0.31748,-0.31181 h 1.34929 c 1.12252,0 1.72346,0.62363 1.72346,1.91056 0,1.29259 -0.6066,1.91622 -1.72346,1.91622 z"
       id="path52672" /><path
       style="font-size:7.55906px;line-height:1.25;font-family:Nasalization;-inkscape-font-specification:Nasalization;white-space:pre;stroke-width:0.75"
       d="m 478.83371,290.19344 v -0.66898 h 2.21103 c 0.30614,0 0.47055,-0.17008 0.47055,-0.4252 0,-0.18141 -0.085,-0.31181 -0.35717,-0.37417 l -1.61007,-0.36851 c -0.65198,-0.14739 -0.83907,-0.47622 -0.83907,-1.09983 v -0.57828 c 0,-0.20976 0.10206,-0.31181 0.31749,-0.31181 h 3.05008 v 0.66898 h -2.62489 c -0.051,0 -0.0737,0.017 -0.0737,0.0794 v 0.19276 c 0,0.21543 0.051,0.35716 0.31748,0.41953 l 1.59308,0.35716 c 0.61794,0.14174 0.89007,0.45921 0.89007,1.02614 0,0.70299 -0.41385,1.08284 -1.15086,1.08284 z"
       id="path52674" /><path
       style="font-size:7.55906px;line-height:1.25;font-family:Nasalization;-inkscape-font-specification:Nasalization;white-space:pre;stroke-width:0.75"
       d="m 385.69768,312.91621 v -2.50583 c 0,-0.76536 0.39685,-1.32095 1.41165,-1.32095 h 1.52504 v 0.66898 h -1.48536 c -0.60094,0 -0.78236,0.28913 -0.78236,0.65764 v 2.50016 z"
       id="path52659" /><path
       style="font-size:7.55906px;line-height:1.25;font-family:Nasalization;-inkscape-font-specification:Nasalization;white-space:pre;stroke-width:0.75"
       d="m 390.40319,312.91621 c -0.90142,0 -1.28126,-0.43087 -1.28126,-1.04315 0,-0.41953 0.18142,-0.71433 0.53859,-0.86174 -0.35151,-0.1474 -0.54993,-0.4422 -0.54993,-0.87874 0,-0.59527 0.36851,-1.04315 1.2756,-1.04315 h 1.93889 v 0.66898 h -1.93889 c -0.39119,0 -0.57828,0.18142 -0.57828,0.48189 0,0.31181 0.19843,0.46489 0.58395,0.46489 h 1.89921 v 0.60661 h -1.88221 c -0.38551,0 -0.58394,0.14173 -0.58394,0.45354 0,0.2948 0.17575,0.48189 0.57827,0.48189 h 1.91623 v 0.66898 z"
       id="path52661" /><path
       style="font-size:7.55906px;line-height:1.25;font-family:Nasalization;-inkscape-font-specification:Nasalization;white-space:pre;stroke-width:0.75"
       d="m 393.86147,312.1792 c 0,0.051 0.0226,0.068 0.0737,0.068 h 0.9241 c 0.74268,0 1.05449,-0.3685 1.05449,-1.24157 0,-0.87874 -0.31181,-1.24725 -1.05449,-1.24725 h -0.9241 c -0.051,0 -0.0737,0.017 -0.0737,0.068 z"
       id="path53168" /><path
       style="font-size:7.55906px;line-height:1.25;font-family:Nasalization;-inkscape-font-specification:Nasalization;white-space:pre;stroke-width:0.75"
       d="m 393.50997,312.91621 c -0.21543,0 -0.31748,-0.10205 -0.31748,-0.31181 v -3.20316 c 0,-0.20976 0.10205,-0.31181 0.31748,-0.31181 h 1.34929 c 1.12252,0 1.72346,0.62363 1.72346,1.91056 0,1.29259 -0.6066,1.91622 -1.72346,1.91622 z"
       id="path52663" /><path
       style="font-size:7.55906px;line-height:1.25;font-family:Nasalization;-inkscape-font-specification:Nasalization;white-space:pre;stroke-width:0.75"
       d="m 397.07028,312.91621 v -0.66898 h 0.34583 c 0.2041,0 0.2778,-0.085 0.2778,-0.28913 v -2.86867 h 0.66898 v 2.91402 c 0,0.66331 -0.19276,0.91276 -0.89009,0.91276 z"
       id="path52665" /><path
       style="font-size:15.1181px;line-height:1.25;font-family:Nasalization;-inkscape-font-specification:Nasalization;white-space:pre;stroke-width:0.75"
       d="m 440.33256,338.41969 c 0.0794,0.19276 0.21543,0.32882 0.41953,0.32882 0.22677,0 0.39685,-0.17008 0.39685,-0.4422 v -4.51276 c 0,-1.00913 0.56693,-1.6781 1.68945,-1.6781 1.02047,0 1.51936,0.54425 1.81417,1.41732 l 1.85952,4.88692 c 0.068,0.19276 0.22678,0.32882 0.41953,0.32882 0.22678,0 0.38552,-0.17008 0.38552,-0.4422 v -6.0548 h 1.34928 v 6.12283 c 0,0.99779 -0.56692,1.66677 -1.70078,1.66677 -1.02047,0 -1.50803,-0.54425 -1.80283,-1.41732 l -1.85953,-4.88693 c -0.068,-0.19275 -0.22677,-0.31748 -0.43087,-0.31748 -0.22677,0 -0.38551,0.17008 -0.38551,0.43087 v 4.52409 c 0,0.99779 -0.56693,1.66677 -1.70079,1.66677 -1.02047,0 -1.50802,-0.54425 -1.80283,-1.41732 l -2.36976,-6.37228 h 1.42866 z"
       id="path52652" /><path
       style="font-size:15.1181px;line-height:1.25;font-family:Nasalization;-inkscape-font-specification:Nasalization;white-space:pre;stroke-width:0.75"
       d="m 450.49193,339.90505 v -1.33796 h 3.97984 c 0.72567,0 1.05448,-0.46488 1.05448,-1.02047 0,-0.53291 -0.30613,-1.05448 -1.06582,-1.05448 h -2.75528 c -0.83905,0 -1.20188,-0.3515 -1.20188,-1.21323 v -3.0274 h 1.33795 v 2.76661 c 0,0.13606 0.068,0.19276 0.19275,0.19276 h 2.3811 c 1.7915,0 2.46048,1.24724 2.46048,2.40377 0,1.22457 -0.73701,2.2904 -2.46048,2.2904 z"
       id="path52654" /><path
       style="font-size:15.1181px;line-height:1.25;font-family:Nasalization;-inkscape-font-specification:Nasalization;white-space:pre;stroke-width:0.75"
       d="m 458.15682,339.90505 v -5.21575 c 0,-1.61008 0.83904,-2.43779 2.4718,-2.43779 h 1.61008 c 1.63276,0 2.48315,0.82771 2.48315,2.43779 v 5.21575 h -1.31527 v -5.1137 c 0,-0.75969 -0.39686,-1.20189 -1.25859,-1.20189 h -1.36063 c -0.88441,0 -1.26992,0.4422 -1.26992,1.20189 v 5.1137 z"
       id="path52656" /><path
       style="fill:none;stroke:#000000;stroke-width:1.03464569;stroke-linecap:butt;stroke-linejoin:miter;stroke-opacity:1;marker-end:url(#TriangleInM);stroke-miterlimit:4;stroke-dasharray:none"
       d="m 436.77683,336.67515 -3.8818,-3.21906 -17.13676,-0.18936 h 0.28403"
       id="path52464" /></g></svg>
