M48
;GenerationSoftware,Autodesk,EAGLE,9.6.2*%
;CreationDate,2022-06-06T20:34:28Z*%
FMAT,2
ICI,OFF
METRIC,TZ,000.000
T7C0.350
T6C0.600
T5C0.800
T4C0.813
T3C1.000
T2C1.016
T1C3.500
%
G90
M71
T1
X51000Y85000
X-1600Y85000
X-1700Y5000
X52000Y5000
T2
X30410Y84280
X10330Y84240
X12870Y84240
X25330Y84280
X27870Y84280
X38960Y7780
X38960Y10320
X35230Y7770
X35230Y10310
X35230Y12850
X38960Y12860
X2140Y39510
X10260Y39510
X12800Y39510
X15340Y39510
X-2940Y39510
X-400Y39510
T3
X43320Y63680
X40780Y63680
X35700Y63680
X33160Y63680
X30620Y63680
X28080Y63680
X25540Y63680
X23000Y63680
X140Y63680
X50940Y66220
X23000Y78920
X25540Y78920
X28080Y78920
X30620Y78920
X33160Y78920
X35700Y78920
X38240Y78920
X40780Y78920
X16000Y10780
X11000Y10830
X26900Y10790
X21900Y10840
X38240Y63680
X2680Y78920
X43320Y78920
X45860Y78920
X50940Y78920
X20460Y78920
X20460Y63680
X7760Y66220
X7760Y68760
X7760Y76380
X7760Y73840
X48400Y78920
X48400Y63680
X53480Y63680
X50940Y63680
X7760Y71300
X53480Y78920
X5220Y78920
X7760Y78920
X10300Y78920
X12840Y78920
X17920Y78920
X45860Y63680
X140Y78920
X-2400Y78920
X-4940Y78920
X15380Y63680
X12840Y63680
X10300Y63680
X7760Y63680
X5220Y63680
X2680Y63680
X-2400Y63680
X-4940Y63680
X47130Y75920
X44590Y75920
X42050Y75920
X39510Y75920
X36970Y75920
X15380Y78920
X17920Y63680
X53250Y70300
X53250Y72300
T4
X3900Y28190
X3900Y35810
X8000Y28190
X8000Y35810
X52400Y59170
X52400Y56630
X40100Y58970
X40100Y56430
T5
X14400Y45300
X22370Y48910
X22370Y56530
X22370Y41290
X22370Y59070
X22370Y46370
X22370Y51450
X22370Y43830
X-600Y45300
X1900Y45300
X22370Y53990
X4400Y45300
X6900Y45300
X9400Y45300
X11900Y45300
T6
X42300Y48000
X38510Y70180
X40510Y66180
X40510Y68180
X40510Y70180
X38510Y66180
X38510Y68180
X50300Y48000
T7
X2800Y61400
X16300Y72100
X15000Y73400
X29300Y55000
X25800Y56500
X34400Y74400
X46900Y71500
X4500Y58400
X9200Y54800
X7900Y57700
X-1100Y76000
X11600Y18700
X20200Y25300
X15600Y57400
X14000Y69700
X46200Y18400
X37000Y22200
X33200Y71900
X13100Y58300
X44600Y71600
X5400Y61100
X18600Y76200
X8500Y53700
X7800Y61900
X2600Y54300
X600Y47400
M30