G04 EAGLE Gerber RS-274X export*
G75*
%MOMM*%
%FSLAX34Y34*%
%LPD*%
%INSoldermask Top*%
%IPPOS*%
%AMOC8*
5,1,8,0,0,1.08239X$1,22.5*%
G01*
%ADD10C,3.627000*%
%ADD11C,1.651000*%
%ADD12C,1.905000*%
%ADD13C,1.905000*%
%ADD14P,1.457113X8X292.500000*%
%ADD15P,1.457113X8X112.500000*%
%ADD16C,1.027000*%
%ADD17R,1.627000X1.627000*%
%ADD18C,1.803400*%
%ADD19P,1.761049X8X292.500000*%
%ADD20C,1.627000*%
%ADD21C,1.027000*%
%ADD22C,0.652000*%


D10*
X510000Y850000D03*
X-16000Y850000D03*
X-17000Y50000D03*
X520000Y50000D03*
D11*
X103300Y834780D02*
X103300Y850020D01*
X128700Y850020D02*
X128700Y834780D01*
X253300Y835180D02*
X253300Y850420D01*
X278700Y850420D02*
X278700Y835180D01*
X304100Y835180D02*
X304100Y850420D01*
D12*
X160000Y107800D03*
X110000Y108300D03*
X269000Y107900D03*
X219000Y108400D03*
D11*
X344680Y77700D02*
X359920Y77700D01*
X359920Y103100D02*
X344680Y103100D01*
X344680Y128500D02*
X359920Y128500D01*
X381980Y77800D02*
X397220Y77800D01*
X397220Y103200D02*
X381980Y103200D01*
X381980Y128600D02*
X397220Y128600D01*
D12*
X-6000Y453000D03*
X19000Y453000D03*
X44000Y453000D03*
X69000Y453000D03*
X94000Y453000D03*
X119000Y453000D03*
X144000Y453000D03*
D13*
X214810Y514500D02*
X232590Y514500D01*
X232590Y489100D02*
X214810Y489100D01*
X214810Y539900D02*
X232590Y539900D01*
X232590Y565300D02*
X214810Y565300D01*
X214810Y590700D02*
X232590Y590700D01*
X232590Y463700D02*
X214810Y463700D01*
X214810Y438300D02*
X232590Y438300D01*
X232590Y412900D02*
X214810Y412900D01*
D14*
X524000Y591700D03*
X524000Y566300D03*
X401000Y589700D03*
X401000Y564300D03*
D11*
X-29400Y402720D02*
X-29400Y387480D01*
X-4000Y387480D02*
X-4000Y402720D01*
X21400Y402720D02*
X21400Y387480D01*
X102600Y387480D02*
X102600Y402720D01*
X128000Y402720D02*
X128000Y387480D01*
X153400Y387480D02*
X153400Y402720D01*
D15*
X39000Y281900D03*
X39000Y358100D03*
X80000Y281900D03*
X80000Y358100D03*
D16*
X498500Y480000D02*
X507500Y480000D01*
X427500Y480000D02*
X418500Y480000D01*
D17*
X534800Y789200D03*
X77600Y713000D03*
X509400Y636800D03*
D18*
X534800Y636800D03*
D19*
X484000Y636800D03*
X77600Y738400D03*
D20*
X77600Y763800D03*
X77600Y687600D03*
X77600Y662200D03*
X204600Y636800D03*
X204600Y789200D03*
X509400Y789200D03*
X484000Y789200D03*
X458600Y789200D03*
X433200Y789200D03*
X407800Y789200D03*
X382400Y789200D03*
X357000Y789200D03*
X331600Y789200D03*
X306200Y789200D03*
X280800Y789200D03*
X255400Y789200D03*
X230000Y789200D03*
X509400Y662200D03*
X230000Y636800D03*
X255400Y636800D03*
X280800Y636800D03*
X306200Y636800D03*
X331600Y636800D03*
X357000Y636800D03*
X382400Y636800D03*
X407800Y636800D03*
X433200Y636800D03*
X458600Y636800D03*
D19*
X179200Y789200D03*
D20*
X128400Y789200D03*
X103000Y789200D03*
X77600Y789200D03*
X52200Y789200D03*
X26800Y789200D03*
X1400Y789200D03*
X-24000Y789200D03*
X-49400Y789200D03*
X153800Y636800D03*
X128400Y636800D03*
X103000Y636800D03*
X77600Y636800D03*
X52200Y636800D03*
X26800Y636800D03*
X1400Y636800D03*
X-24000Y636800D03*
X-49400Y636800D03*
X471300Y759200D03*
X445900Y759200D03*
X420500Y759200D03*
X395100Y759200D03*
X369700Y759200D03*
X153800Y789200D03*
D17*
X179200Y636800D03*
D20*
X532500Y703000D03*
X532500Y723000D03*
D21*
X405100Y661800D03*
X405100Y681800D03*
X405100Y701800D03*
X385100Y661800D03*
X385100Y681800D03*
X385100Y701800D03*
D22*
X92000Y548000D03*
X54000Y611000D03*
X186000Y762000D03*
X85000Y537000D03*
X45000Y584000D03*
X78000Y619000D03*
X26000Y543000D03*
X79000Y577000D03*
X-11000Y760000D03*
X116000Y187000D03*
X202000Y253000D03*
X156000Y574000D03*
X140000Y697000D03*
X462000Y184000D03*
X370000Y222000D03*
X469000Y715000D03*
X446000Y716000D03*
X332000Y719000D03*
X344000Y744000D03*
X258000Y565000D03*
X293000Y550000D03*
X150000Y734000D03*
X163000Y721000D03*
X28000Y614000D03*
X6000Y474000D03*
X131000Y583000D03*
M02*
